<svg width="339" height="163" viewBox="0 0 339 163" fill="none" xmlns="http://www.w3.org/2000/svg">
<g clip-path="url(#clip0_47_215)">
<path d="M169.244 99.9397C191.657 99.9397 209.826 81.7882 209.826 59.3973C209.826 37.0063 191.657 18.8549 169.244 18.8549C146.831 18.8549 128.661 37.0063 128.661 59.3973C128.661 81.7882 146.831 99.9397 169.244 99.9397Z" fill="#FFCA2E"/>
<path d="M138.959 37.1654C149.232 37.1654 157.56 28.8456 157.56 18.5827C157.56 8.31976 149.232 0 138.959 0C128.686 0 120.358 8.31976 120.358 18.5827C120.358 28.8456 128.686 37.1654 138.959 37.1654Z" fill="#F4A226"/>
<path d="M199.939 37.1654C210.212 37.1654 218.54 28.8456 218.54 18.5827C218.54 8.31976 210.212 0 199.939 0C189.666 0 181.338 8.31976 181.338 18.5827C181.338 28.8456 189.666 37.1654 199.939 37.1654Z" fill="#F4A226"/>
<path d="M155.067 50.4473C158.844 50.4473 161.906 47.3884 161.906 43.6149C161.906 39.8415 158.844 36.7825 155.067 36.7825C151.29 36.7825 148.228 39.8415 148.228 43.6149C148.228 47.3884 151.29 50.4473 155.067 50.4473Z" fill="black"/>
<path d="M169.05 68.9193C178.323 68.9193 185.841 64.6954 185.841 59.4849C185.841 54.2745 178.323 50.0506 169.05 50.0506C159.776 50.0506 152.259 54.2745 152.259 59.4849C152.259 64.6954 159.776 68.9193 169.05 68.9193Z" fill="#754C24"/>
<path d="M22.1939 163C18.9798 163 16.6154 162.599 15.1007 161.796C13.586 160.993 12.764 159.517 12.6301 157.367C12.3715 153.741 12.2422 149.861 12.2422 145.718C12.2422 138.78 12.5793 132.155 13.2536 125.835H12.2053C10.1318 125.835 7.8921 125.705 5.48152 125.447C3.53736 125.161 2.13812 124.178 1.28379 122.494C0.42947 120.811 0 118.924 0 116.825C0 115.09 0.230898 113.402 0.70193 111.759C1.16834 110.117 1.80101 108.756 2.60453 107.681C3.40806 106.606 4.31318 106.071 5.32451 106.071H42.8732C43.8337 106.071 44.6788 106.588 45.4177 107.626C46.1565 108.664 46.7338 109.974 47.1494 111.565C47.565 113.157 47.7728 114.809 47.7728 116.516C47.7728 118.873 47.311 120.967 46.392 122.808C45.4731 124.649 43.9861 125.632 41.9403 125.761H40.578C39.8253 125.761 37.6733 125.724 34.1267 125.645V126.42C34.1267 128.026 34.1637 130.162 34.2422 132.828C34.3992 136.865 34.4731 141.529 34.4731 146.807C34.4731 150.484 34.3946 154.318 34.2422 158.304C34.2145 159.729 33.2309 160.869 31.2867 161.722C29.3425 162.576 26.3131 163.005 22.1893 163.005L22.1939 163Z" fill="#AED6F1"/>
<path d="M75.176 163C70.4057 163 66.2495 162.202 62.6983 160.61C59.1471 159.019 56.1916 156.887 53.8364 154.221C51.4767 151.554 49.708 148.546 48.5304 145.192C47.3528 141.838 46.7617 138.401 46.7617 134.881C46.7617 131.361 47.3621 127.777 48.5673 124.358C49.7726 120.94 51.5783 117.863 53.9888 115.118C56.3994 112.373 59.4057 110.186 63.0077 108.553C66.6097 106.92 70.8074 106.108 75.6009 106.108C80.3943 106.108 84.6244 106.897 88.2172 108.474C91.8053 110.052 94.7931 112.17 97.176 114.822C99.5589 117.475 101.346 120.474 102.542 123.814C103.734 127.154 104.329 130.586 104.329 134.106C104.329 137.626 103.715 141.22 102.482 144.648C101.249 148.076 99.4157 151.171 96.9821 153.93C94.5438 156.689 91.5052 158.889 87.8662 160.532C84.2272 162.174 79.9926 163 75.176 163ZM75.7625 143.933C77.9145 143.933 79.8494 143.098 81.5719 141.428C83.2944 139.758 84.1949 137.294 84.2734 134.028C84.2734 131.855 83.8994 130.074 83.1466 128.69C82.3939 127.306 81.4241 126.282 80.2327 125.622C79.0413 124.963 77.7713 124.631 76.4229 124.631C74.2201 124.631 72.2159 125.438 70.4195 127.057C68.6185 128.676 67.6672 130.96 67.561 133.913C67.561 136.164 67.9535 138.037 68.7478 139.523C69.5375 141.013 70.5627 142.12 71.8188 142.844C73.0749 143.568 74.391 143.933 75.7625 143.933Z" fill="#98D9A9"/>
<path d="M138.46 162.377C133.381 162.377 128.924 161.556 125.087 159.914C121.249 158.271 118.04 156.085 115.444 153.349C112.854 150.618 110.905 147.545 109.593 144.127C108.287 140.708 107.631 137.216 107.631 133.64C107.631 129.138 108.711 124.824 110.877 120.709C113.038 116.594 116.313 113.24 120.69 110.652C125.276 107.958 131.067 106.588 138.068 106.537C141.956 106.537 145.872 106.97 149.825 107.838C153.778 108.705 156.48 110.02 157.93 111.778C158.576 112.76 158.899 113.872 158.899 115.118C158.899 116.645 158.544 118.246 157.833 119.916C157.122 121.586 156.272 123.131 155.288 124.557C154.305 125.982 153.358 127.122 152.453 127.975C151.857 128.469 151.197 128.713 150.472 128.713C149.899 128.713 149.303 128.603 148.685 128.381C148.061 128.16 147.479 127.92 146.934 127.661C143.619 126.241 140.728 125.525 138.266 125.525C136.221 125.553 134.526 125.941 133.191 126.688C131.857 127.44 130.873 128.418 130.236 129.622C129.598 130.826 129.284 132.1 129.284 133.447C129.284 135.49 130.005 137.363 131.441 139.057C132.877 140.754 134.96 141.654 137.68 141.755C138.871 141.755 140.049 141.626 141.217 141.368C142.381 141.109 143.545 140.819 144.695 140.496C145.849 140.173 147.008 139.887 148.172 139.642C149.34 139.398 150.518 139.273 151.709 139.273C153.109 139.352 154.305 140.155 155.307 141.682C156.304 143.209 157.071 145.068 157.602 147.255C158.133 149.441 158.401 151.453 158.401 153.293C158.401 154.124 158.336 154.82 158.207 155.388C157.56 157.588 155.639 159.143 152.453 160.047C147.946 161.547 143.277 162.326 138.46 162.377Z" fill="#FFCA2E"/>
<path d="M202.285 163C199.071 163 196.707 162.599 195.192 161.796C193.677 160.993 192.855 159.517 192.726 157.367C192.467 153.741 192.338 149.861 192.338 145.718C192.338 138.78 192.675 132.155 193.349 125.835H192.301C190.228 125.835 187.988 125.705 185.577 125.447C183.633 125.161 182.234 124.178 181.379 122.494C180.525 120.811 180.096 118.924 180.096 116.825C180.096 115.09 180.327 113.402 180.793 111.759C181.259 110.117 181.892 108.756 182.696 107.681C183.499 106.606 184.404 106.071 185.416 106.071H222.964C223.925 106.071 224.77 106.588 225.509 107.626C226.248 108.664 226.825 109.974 227.24 111.565C227.656 113.157 227.864 114.809 227.864 116.516C227.864 118.873 227.402 120.967 226.483 122.808C225.564 124.649 224.077 125.632 222.031 125.761H220.669C219.916 125.761 217.764 125.724 214.218 125.645V126.42C214.218 128.026 214.255 130.162 214.333 132.828C214.49 136.865 214.569 141.529 214.569 146.807C214.569 150.484 214.49 154.318 214.333 158.304C214.306 159.729 213.322 160.869 211.378 161.722C209.434 162.576 206.404 163.005 202.28 163.005L202.285 163Z" fill="#F4A226"/>
<path d="M255.267 163C250.497 163 246.34 162.202 242.789 160.61C239.238 159.019 236.282 156.887 233.927 154.221C231.567 151.554 229.799 148.546 228.621 145.192C227.444 141.838 226.853 138.401 226.853 134.881C226.853 131.361 227.453 127.777 228.658 124.358C229.863 120.94 231.669 117.863 234.08 115.118C236.49 112.373 239.497 110.186 243.099 108.553C246.701 106.92 250.898 106.108 255.692 106.108C260.485 106.108 264.715 106.897 268.308 108.474C271.896 110.052 274.884 112.17 277.267 114.822C279.65 117.475 281.437 120.474 282.633 123.814C283.829 127.154 284.42 130.586 284.42 134.106C284.42 137.626 283.806 141.22 282.573 144.648C281.34 148.08 279.507 151.171 277.073 153.93C274.635 156.689 271.596 158.889 267.957 160.532C264.318 162.174 260.083 163 255.267 163ZM255.853 143.933C258.005 143.933 259.94 143.098 261.663 141.428C263.385 139.758 264.286 137.294 264.364 134.028C264.364 131.855 263.99 130.074 263.237 128.69C262.485 127.306 261.515 126.282 260.324 125.622C259.132 124.963 257.862 124.631 256.514 124.631C254.311 124.631 252.307 125.438 250.506 127.057C248.705 128.676 247.753 130.96 247.647 133.913C247.647 136.164 248.044 138.037 248.834 139.523C249.624 141.013 250.649 142.12 251.905 142.844C253.161 143.568 254.477 143.933 255.849 143.933H255.853Z" fill="#AED6F1"/>
<path d="M318.552 162.377C313.472 162.377 309.016 161.556 305.178 159.914C301.341 158.271 298.131 156.085 295.536 153.349C292.945 150.618 290.996 147.545 289.685 144.127C288.378 140.708 287.722 137.216 287.722 133.64C287.722 129.138 288.803 124.824 290.969 120.709C293.13 116.594 296.404 113.24 300.782 110.652C305.367 107.958 311.158 106.588 318.159 106.537C322.047 106.537 325.964 106.97 329.916 107.838C333.869 108.705 336.571 110.02 338.021 111.778C338.668 112.76 338.991 113.872 338.991 115.118C338.991 116.645 338.635 118.246 337.924 119.916C337.213 121.586 336.363 123.131 335.38 124.557C334.396 125.982 333.449 127.122 332.544 127.975C331.948 128.469 331.288 128.713 330.563 128.713C329.99 128.713 329.395 128.603 328.776 128.381C328.152 128.16 327.571 127.92 327.026 127.661C323.71 126.241 320.819 125.525 318.358 125.525C316.312 125.553 314.617 125.941 313.283 126.688C311.948 127.44 310.964 128.418 310.327 129.622C309.69 130.826 309.376 132.1 309.376 133.447C309.376 135.49 310.096 137.363 311.532 139.057C312.969 140.754 315.051 141.654 317.771 141.755C318.963 141.755 320.14 141.626 321.309 141.368C322.472 141.109 323.636 140.819 324.786 140.496C325.94 140.173 327.1 139.887 328.263 139.642C329.432 139.398 330.609 139.273 331.801 139.273C333.2 139.352 334.396 140.155 335.398 141.682C336.395 143.209 337.162 145.068 337.693 147.255C338.224 149.441 338.492 151.453 338.492 153.293C338.492 154.124 338.427 154.82 338.298 155.388C337.652 157.588 335.73 159.143 332.544 160.047C328.037 161.547 323.368 162.326 318.552 162.377Z" fill="#98D9A9"/>
<path d="M156.106 72.8868C156.119 72.5962 156.18 72.2594 156.281 71.8719C156.387 71.4843 156.535 71.1153 156.734 70.7554C156.928 70.4002 157.168 70.1049 157.445 69.8697C157.722 69.6344 158.041 69.5237 158.391 69.5421C158.655 69.5559 158.932 69.6436 159.223 69.8143C160.516 70.6032 161.961 71.2121 163.554 71.6412C165.148 72.0702 166.778 72.324 168.449 72.3978C170.126 72.4716 171.779 72.3609 173.395 72.0749C175.016 71.7842 176.503 71.3044 177.865 70.6355C178.17 70.4925 178.457 70.4233 178.72 70.4371C179.071 70.4509 179.376 70.5893 179.634 70.8477C179.893 71.106 180.101 71.4198 180.262 71.7934C180.424 72.1671 180.539 72.55 180.613 72.9514C180.687 73.3528 180.719 73.6941 180.705 73.9848C180.692 74.3031 180.632 74.5153 180.521 74.6214C178.66 76.1162 176.669 77.2049 174.559 77.8969C172.449 78.589 170.315 78.8842 168.172 78.7919C166.02 78.6997 163.919 78.2153 161.873 77.3433C159.828 76.4714 157.948 75.2073 156.235 73.5604C156.133 73.4404 156.092 73.219 156.106 72.896V72.8868Z" fill="black"/>
<path d="M190.588 42.337C190.588 42.54 190.556 42.7753 190.496 43.0429C190.436 43.315 190.343 43.578 190.219 43.8271C190.094 44.0809 189.937 44.2931 189.752 44.4638C189.567 44.6345 189.35 44.7175 189.106 44.7175C188.921 44.7175 188.727 44.6621 188.519 44.5514C187.6 44.0486 186.58 43.6703 185.467 43.4211C184.354 43.172 183.213 43.0475 182.059 43.0475C180.904 43.0475 179.759 43.172 178.646 43.4211C177.533 43.6703 176.517 44.0486 175.598 44.5514C175.39 44.6621 175.196 44.7175 175.012 44.7175C174.767 44.7175 174.554 44.6345 174.365 44.4638C174.18 44.2931 174.023 44.0809 173.903 43.8271C173.783 43.5734 173.691 43.3104 173.626 43.0382C173.562 42.766 173.529 42.5261 173.529 42.3278C173.529 42.1063 173.566 41.9587 173.64 41.8803C174.882 40.7915 176.226 39.975 177.667 39.4352C179.108 38.8954 180.572 38.6232 182.059 38.6232C183.546 38.6232 185.019 38.8954 186.46 39.4352C187.9 39.975 189.24 40.7915 190.477 41.8803C190.551 41.9587 190.588 42.1109 190.588 42.337Z" fill="black"/>
<path d="M185.642 97.5407C184.534 91.2434 201.634 82.5841 215.169 79.7054C216.656 79.3871 236.878 75.2304 239.889 81.7629C242.231 86.8423 233.503 96.9733 224.096 101.656C208.427 109.457 186.81 104.179 185.642 97.5407Z" fill="#FFCA2E"/>
<path d="M103.757 76.5868C107.432 71.3506 125.65 77.3111 137.26 84.8309C138.534 85.6567 155.778 97.001 153.284 103.75C151.345 108.996 138.003 109.992 128.038 106.661C111.436 101.111 99.8867 82.1044 103.761 76.5868H103.757Z" fill="#FFCA2E"/>
<path d="M152.757 100.037C152.577 100.618 153.478 101.577 154.485 101.73C154.997 101.808 155.796 101.711 155.93 101.324C156.142 100.706 154.734 99.2754 153.543 99.506C153.478 99.5199 152.882 99.6398 152.757 100.041V100.037Z" fill="#754C24" stroke="#754C24" stroke-width="0.52" stroke-miterlimit="10"/>
<path d="M186.64 97.7114C186.22 97.2685 184.945 97.5823 184.317 98.385C183.998 98.7956 183.689 99.5337 183.966 99.8428C184.4 100.327 186.34 99.8059 186.723 98.6572C186.741 98.5972 186.931 98.0159 186.644 97.7114H186.64Z" fill="#754C24" stroke="#754C24" stroke-width="0.52" stroke-miterlimit="10"/>
<path d="M152.153 102.463C151.972 103.044 152.873 104.004 153.88 104.156C154.392 104.235 155.191 104.138 155.325 103.75C155.537 103.132 154.129 101.702 152.938 101.933C152.873 101.946 152.277 102.066 152.153 102.468V102.463Z" fill="#754C24" stroke="#754C24" stroke-width="0.52" stroke-miterlimit="10"/>
<path d="M187.729 100.009C187.268 99.6167 186.03 100.06 185.49 100.927C185.217 101.37 184.986 102.136 185.296 102.412C185.781 102.851 187.651 102.122 187.91 100.941C187.923 100.876 188.048 100.281 187.729 100.009Z" fill="#754C24" stroke="#754C24" stroke-width="0.52" stroke-miterlimit="10"/>
<path d="M190.159 101.827C189.697 101.434 188.459 101.877 187.919 102.745C187.646 103.188 187.416 103.953 187.725 104.23C188.21 104.668 190.08 103.939 190.339 102.758C190.353 102.694 190.477 102.099 190.159 101.827Z" fill="#754C24" stroke="#754C24" stroke-width="0.52" stroke-miterlimit="10"/>
<path d="M192.592 103.04C192.13 102.648 190.893 103.091 190.353 103.958C190.08 104.401 189.849 105.167 190.159 105.443C190.643 105.882 192.514 105.153 192.772 103.972C192.786 103.907 192.911 103.312 192.592 103.04Z" fill="#754C24" stroke="#754C24" stroke-width="0.52" stroke-miterlimit="10"/>
<path d="M195.381 104.064C194.855 103.76 193.719 104.424 193.349 105.374C193.16 105.859 193.077 106.657 193.432 106.869C193.987 107.21 195.695 106.154 195.732 104.945C195.732 104.881 195.746 104.272 195.386 104.064H195.381Z" fill="#754C24" stroke="#754C24" stroke-width="0.52" stroke-miterlimit="10"/>
<path d="M150.938 104.894C150.758 105.476 151.659 106.435 152.665 106.588C153.178 106.666 153.977 106.569 154.111 106.182C154.323 105.563 152.915 104.133 151.723 104.364C151.659 104.378 151.063 104.498 150.938 104.899V104.894Z" fill="#754C24" stroke="#754C24" stroke-width="0.52" stroke-miterlimit="10"/>
<path d="M148.832 106.172C148.453 106.648 148.938 107.87 149.82 108.378C150.268 108.636 151.044 108.839 151.312 108.525C151.732 108.027 150.947 106.182 149.756 105.965C149.691 105.951 149.091 105.849 148.832 106.177V106.172Z" fill="#754C24" stroke="#754C24" stroke-width="0.52" stroke-miterlimit="10"/>
<path d="M146.648 106.874C146.066 107.054 145.785 108.341 146.232 109.254C146.459 109.72 146.99 110.324 147.387 110.209C148.015 110.034 148.398 108.064 147.535 107.215C147.489 107.169 147.05 106.749 146.648 106.874Z" fill="#754C24" stroke="#754C24" stroke-width="0.52" stroke-miterlimit="10"/>
</g>
<defs>
<clipPath id="clip0_47_215">
<rect width="339" height="163" fill="white"/>
</clipPath>
</defs>
</svg>
