<svg width="108" height="108" viewBox="0 0 108 108" fill="none" xmlns="http://www.w3.org/2000/svg">
<path d="M91.8844 46.2204C84.4594 46.2373 77.2031 43.9254 71.1619 39.6054V69.7611C71.1619 75.3467 69.4575 80.7973 66.2681 85.3873C63.0787 89.9773 58.5731 93.4873 53.3419 95.4448C48.1106 97.4023 42.4069 97.7229 36.99 96.3392C31.5731 94.9554 26.7131 91.9686 23.0344 87.7667C19.3556 83.5648 17.0775 78.3167 16.4531 72.7648C15.8287 67.2129 16.9425 61.6104 19.5919 56.6998C22.2412 51.7892 26.3419 47.8067 31.3369 45.2754C36.3319 42.7442 41.9512 41.8161 47.4862 42.5754V57.7461C44.955 56.9529 42.2381 56.9698 39.7237 57.8136C37.2094 58.6573 35.0156 60.2773 33.48 62.4204C31.9444 64.5636 31.1175 67.1623 31.1344 69.8286C31.1512 72.4948 32.0119 75.0598 33.5812 77.2029C35.1506 79.3461 37.3612 80.9323 39.8925 81.7423C42.4237 82.5523 45.1406 82.5523 47.655 81.7254C50.1693 80.8986 52.38 79.2954 53.9325 77.1523C55.485 75.0092 56.3287 72.4104 56.3287 69.7611V10.7998H71.1787C71.1618 12.0486 71.28 13.3142 71.4994 14.5461C72.0225 17.2967 73.0856 19.9292 74.655 22.2579C76.2243 24.5867 78.2494 26.5779 80.595 28.0967C83.9531 30.3073 87.885 31.4886 91.9012 31.4886V46.2373L91.8844 46.2204Z" fill="black"/>
</svg>
