<svg width="76" height="80" viewBox="0 0 76 80" fill="none" xmlns="http://www.w3.org/2000/svg">
<path d="M37.8295 19.3752C27.1139 19.3397 18.4064 28.4616 18.3727 39.7309C18.3389 51.0002 27.0127 60.1576 37.7283 60.1931C48.4439 60.2286 57.1514 51.1067 57.1852 39.8374C57.2189 28.5681 48.5452 19.4107 37.8295 19.3752ZM37.7283 26.545C44.6808 26.5095 50.3339 32.4192 50.3677 39.7309C50.4014 47.0427 44.782 52.9879 37.8295 53.0234C30.877 53.0589 25.2239 47.1491 25.1902 39.8374C25.1564 32.5257 30.7758 26.5805 37.7283 26.545ZM53.4895 18.5411C53.4895 15.9146 55.5145 13.7849 58.012 13.7849C60.5095 13.7849 62.5345 15.9146 62.5345 18.5411C62.5345 21.1676 60.5095 23.2973 58.012 23.2973C55.5145 23.2973 53.4895 21.1676 53.4895 18.5411ZM75.3764 23.3683C75.0895 16.9971 73.7058 11.3536 69.2677 6.7039C64.8464 2.05421 59.4802 0.598959 53.422 0.279514C47.1783 -0.0931713 28.4639 -0.0931713 22.2202 0.279514C16.1789 0.581212 10.8127 2.03646 6.37453 6.68615C1.93641 11.3358 0.569531 16.9794 0.265781 23.3505C-0.0885938 29.9169 -0.0885938 49.5982 0.265781 56.1646C0.552656 62.5357 1.93641 68.1792 6.37453 72.8289C10.8127 77.4786 16.162 78.9339 22.2202 79.2533C28.4639 79.626 47.1783 79.626 53.422 79.2533C59.4802 78.9516 64.8464 77.4964 69.2677 72.8289C73.6889 68.1792 75.0727 62.5357 75.3764 56.1646C75.7308 49.5982 75.7308 29.9346 75.3764 23.3683ZM67.3102 63.2101C65.9939 66.6885 63.4458 69.3683 60.1214 70.7703C55.1433 72.8467 43.3308 72.3675 37.8295 72.3675C32.3283 72.3675 20.4989 72.8289 15.5377 70.7703C12.2302 69.386 9.68203 66.7062 8.34891 63.2101C6.37453 57.9748 6.83016 45.5519 6.83016 39.7664C6.83016 33.9809 6.39141 21.5403 8.34891 16.3227C9.66516 12.8443 12.2133 10.1645 15.5377 8.76254C20.5158 6.68615 32.3283 7.16532 37.8295 7.16532C43.3308 7.16532 55.1602 6.7039 60.1214 8.76254C63.4289 10.1468 65.977 12.8266 67.3102 16.3227C69.2845 21.5581 68.8289 33.9809 68.8289 39.7664C68.8289 45.5519 69.2845 57.9925 67.3102 63.2101Z" fill="black"/>
</svg>
